<svg width="60" height="60" viewBox="0 0 60 60" fill="none" xmlns="http://www.w3.org/2000/svg">
<rect width="60" height="60" rx="5" fill="url(#paint0_linear)"/>
<g clip-path="url(#clip0)">
<path d="M40.2747 15.5668H36.1228L37.1457 14.5438C37.4992 14.1903 37.4992 13.6187 37.1457 13.2651C36.7922 12.9116 36.2205 12.9116 35.867 13.2651L33.3096 15.83C33.1366 16.003 33.0464 16.2287 33.0464 16.4694C33.0464 16.7101 33.1442 16.9357 33.3096 17.1087L35.8745 19.6736C36.0475 19.8466 36.2807 19.9369 36.5139 19.9369C36.7471 19.9369 36.9727 19.8466 37.1532 19.6736C37.5068 19.3201 37.5068 18.7485 37.1532 18.3949L36.1303 17.372H40.2823C42.9826 17.372 45.1714 19.5683 45.1714 22.2611V25.2924C45.1714 25.7888 45.5776 26.195 46.074 26.195C46.5704 26.195 46.9766 25.7888 46.9766 25.2924V22.2611C46.9766 18.5679 43.9679 15.5668 40.2747 15.5668Z" fill="black"/>
<path d="M46.0062 30.3695H31.1809C30.6845 30.3695 30.2783 30.7757 30.2783 31.2721V46.0974C30.2783 46.5938 30.6845 47 31.1809 47H46.0062C46.5026 47 46.9088 46.5938 46.9088 46.0974V31.2721C46.9088 30.7682 46.5026 30.3695 46.0062 30.3695ZM45.1036 45.1948H32.0835V32.1747H45.1036V45.1948Z" fill="black"/>
<path d="M24.1255 40.3282C23.772 39.9747 23.2003 39.9747 22.8468 40.3282C22.4933 40.6818 22.4933 41.2534 22.8468 41.6069L23.8697 42.6299H19.7178C17.0175 42.6299 14.8286 40.4335 14.8286 37.7408V34.7095C14.8286 34.2131 14.4225 33.8069 13.926 33.8069C13.4296 33.8069 13.0234 34.2131 13.0234 34.7095V37.7408C13.0234 41.4339 16.0246 44.4351 19.7178 44.4351H23.8697L22.8468 45.458C22.4933 45.8116 22.4933 46.3832 22.8468 46.7367C23.0198 46.9097 23.253 47 23.4861 47C23.7193 47 23.945 46.9097 24.1255 46.7367L26.6904 44.1718C27.0439 43.8183 27.0439 43.2467 26.6904 42.8931L24.1255 40.3282Z" fill="black"/>
<path d="M13.9939 14.8071C14.2346 14.8071 14.4678 14.7093 14.6333 14.5438C14.7987 14.3784 14.8965 14.1452 14.8965 13.9045C14.8965 13.6713 14.7987 13.4306 14.6333 13.2652C14.4678 13.0997 14.2346 13.0019 13.9939 13.0019C13.7532 13.0019 13.52 13.0997 13.3546 13.2652C13.1891 13.4306 13.0913 13.6638 13.0913 13.9045C13.0913 14.1452 13.1891 14.3784 13.3546 14.5438C13.5276 14.7093 13.7532 14.8071 13.9939 14.8071Z" fill="black"/>
<path d="M21.4099 14.8071C21.9064 14.8071 22.3125 14.4009 22.3125 13.9045C22.3125 13.4081 21.9064 13.0019 21.4099 13.0019C20.9135 13.0019 20.5073 13.4081 20.5073 13.9045C20.5073 14.4009 20.906 14.8071 21.4099 14.8071Z" fill="black"/>
<path d="M17.7019 14.8071C18.1984 14.8071 18.6045 14.4009 18.6045 13.9045C18.6045 13.4081 18.1984 13.0019 17.7019 13.0019C17.2055 13.0019 16.7993 13.4081 16.7993 13.9045C16.7993 14.4009 17.2055 14.8071 17.7019 14.8071Z" fill="black"/>
<path d="M25.1111 14.8071C25.6075 14.8071 26.0137 14.4009 26.0137 13.9045C26.0137 13.4081 25.6075 13.0019 25.1111 13.0019C24.6147 13.0019 24.2085 13.4081 24.2085 13.9045C24.2085 14.4009 24.6147 14.8071 25.1111 14.8071Z" fill="black"/>
<path d="M28.8191 13.0019C28.5859 13.0019 28.3452 13.0997 28.1798 13.2652C28.0143 13.4306 27.9165 13.6638 27.9165 13.9045C27.9165 14.1452 28.0143 14.3784 28.1798 14.5438C28.3452 14.7093 28.5784 14.8071 28.8191 14.8071C29.0598 14.8071 29.293 14.7093 29.4585 14.5438C29.6239 14.3784 29.7217 14.1452 29.7217 13.9045C29.7217 13.6638 29.6239 13.4306 29.4585 13.2652C29.293 13.0997 29.0598 13.0019 28.8191 13.0019Z" fill="black"/>
<path d="M28.8191 24.1265C28.3227 24.1265 27.9165 24.5327 27.9165 25.0291C27.9165 25.5255 28.3227 25.9317 28.8191 25.9317C29.3155 25.9317 29.7217 25.5255 29.7217 25.0291C29.7217 24.5251 29.3231 24.1265 28.8191 24.1265Z" fill="black"/>
<path d="M28.8191 20.4183C28.3227 20.4183 27.9165 20.8244 27.9165 21.3209C27.9165 21.8173 28.3227 22.2235 28.8191 22.2235C29.3155 22.2235 29.7217 21.8173 29.7217 21.3209C29.7217 20.8169 29.3231 20.4183 28.8191 20.4183Z" fill="black"/>
<path d="M28.8191 16.7101C28.3227 16.7101 27.9165 17.1163 27.9165 17.6127C27.9165 18.1091 28.3227 18.5153 28.8191 18.5153C29.3155 18.5153 29.7217 18.1091 29.7217 17.6127C29.7217 17.1163 29.3231 16.7101 28.8191 16.7101Z" fill="black"/>
<path d="M28.8191 27.8272C28.5784 27.8272 28.3452 27.925 28.1798 28.0904C28.0143 28.2559 27.9165 28.4891 27.9165 28.7298C27.9165 28.963 28.0143 29.2037 28.1798 29.3691C28.3452 29.5346 28.5784 29.6324 28.8191 29.6324C29.0598 29.6324 29.293 29.5346 29.4585 29.3691C29.6239 29.2037 29.7217 28.9705 29.7217 28.7298C29.7217 28.4891 29.6239 28.2559 29.4585 28.0904C29.2931 27.925 29.0598 27.8272 28.8191 27.8272Z" fill="black"/>
<path d="M25.1111 29.6324C25.6075 29.6324 26.0137 29.2262 26.0137 28.7298C26.0137 28.2334 25.6075 27.8272 25.1111 27.8272C24.6147 27.8272 24.2085 28.2334 24.2085 28.7298C24.2085 29.2337 24.6147 29.6324 25.1111 29.6324Z" fill="black"/>
<path d="M21.4099 29.6324C21.9064 29.6324 22.3125 29.2262 22.3125 28.7298C22.3125 28.2334 21.9064 27.8272 21.4099 27.8272C20.9135 27.8272 20.5073 28.2334 20.5073 28.7298C20.5073 29.2337 20.906 29.6324 21.4099 29.6324Z" fill="black"/>
<path d="M17.7019 29.6324C18.1984 29.6324 18.6045 29.2262 18.6045 28.7298C18.6045 28.2334 18.1984 27.8272 17.7019 27.8272C17.2055 27.8272 16.7993 28.2334 16.7993 28.7298C16.7993 29.2337 17.2055 29.6324 17.7019 29.6324Z" fill="black"/>
<path d="M13.9939 29.6324C14.2346 29.6324 14.4678 29.5346 14.6333 29.3691C14.7987 29.2037 14.8965 28.9705 14.8965 28.7298C14.8965 28.4891 14.7987 28.2559 14.6333 28.0904C14.4678 27.925 14.2346 27.8272 13.9939 27.8272C13.7532 27.8272 13.52 27.925 13.3546 28.0904C13.1891 28.2559 13.0913 28.4891 13.0913 28.7298C13.0913 28.963 13.1891 29.2037 13.3546 29.3691C13.5276 29.5346 13.7532 29.6324 13.9939 29.6324Z" fill="black"/>
<path d="M13.9939 25.9317C14.4903 25.9317 14.8965 25.5255 14.8965 25.0291C14.8965 24.5327 14.4903 24.1265 13.9939 24.1265C13.4975 24.1265 13.0913 24.5327 13.0913 25.0291C13.0913 25.5255 13.4975 25.9317 13.9939 25.9317Z" fill="black"/>
<path d="M13.9939 22.2235C14.4903 22.2235 14.8965 21.8173 14.8965 21.3209C14.8965 20.8244 14.4903 20.4183 13.9939 20.4183C13.4975 20.4183 13.0913 20.8244 13.0913 21.3209C13.0913 21.8173 13.4975 22.2235 13.9939 22.2235Z" fill="black"/>
<path d="M13.9939 18.5153C14.4903 18.5153 14.8965 18.1091 14.8965 17.6127C14.8965 17.1163 14.4903 16.7101 13.9939 16.7101C13.4975 16.7101 13.0913 17.1163 13.0913 17.6127C13.0913 18.1091 13.4975 18.5153 13.9939 18.5153Z" fill="black"/>
</g>
<defs>
<linearGradient id="paint0_linear" x1="60" y1="-20" x2="-25" y2="79" gradientUnits="userSpaceOnUse">
<stop stop-color="#F50FEC"/>
<stop offset="1" stop-color="#EAFCFD"/>
</linearGradient>
<clipPath id="clip0">
<rect width="34" height="34" fill="white" transform="translate(13 13)"/>
</clipPath>
</defs>
</svg>
